<svg width="502" height="157" viewBox="0 0 502 157" fill="none" xmlns="http://www.w3.org/2000/svg">
<path d="M148.03 97.2405H126.361V125H114.765V46.9923H146.859C152.169 46.9923 156.815 48.0465 160.797 50.1548C164.779 52.2631 167.864 55.2304 170.05 59.0566C172.315 62.8047 173.447 67.1775 173.447 72.175C173.447 77.0163 172.393 81.35 170.284 85.1762C168.254 88.9244 165.326 91.8916 161.5 94.078C157.674 96.1863 153.184 97.2405 148.03 97.2405ZM145.805 57.2996H126.361V86.6989H145.805C150.724 86.6989 154.55 85.4495 157.283 82.9508C160.094 80.374 161.5 76.782 161.5 72.175C161.5 67.4898 160.094 63.8588 157.283 61.282C154.55 58.6271 150.724 57.2996 145.805 57.2996ZM181.295 94.7808C181.295 88.3778 182.466 82.8727 184.808 78.2657C187.151 73.6586 190.431 70.1057 194.647 67.6069C198.942 65.1082 204.018 63.8588 209.874 63.8588C215.496 63.8588 220.494 65.1863 224.866 67.8412C229.239 70.418 232.636 74.01 235.057 78.617C237.555 83.146 238.805 88.3387 238.805 94.1952V97.8261H193.359C194.218 110.086 199.996 116.215 210.694 116.215C214.989 116.215 218.424 115.278 221.001 113.404C223.578 111.452 225.179 108.836 225.803 105.557H238.102C235.525 119.144 226.35 125.937 210.577 125.937C204.564 125.937 199.371 124.688 194.999 122.189C190.626 119.612 187.229 116.02 184.808 111.413C182.466 106.728 181.295 101.184 181.295 94.7808ZM209.991 72.9949C200.308 72.9949 194.803 78.4218 193.476 89.2758H226.389C225.999 84.3563 224.281 80.413 221.235 77.4458C218.268 74.4785 214.52 72.9949 209.991 72.9949ZM248.644 94.7808C248.644 88.3778 249.815 82.8727 252.157 78.2657C254.5 73.6586 257.78 70.1057 261.996 67.6069C266.291 65.1082 271.367 63.8588 277.223 63.8588C282.845 63.8588 287.843 65.1863 292.215 67.8412C296.588 70.418 299.985 74.01 302.406 78.617C304.904 83.146 306.154 88.3387 306.154 94.1952V97.8261H260.708C261.567 110.086 267.345 116.215 278.043 116.215C282.338 116.215 285.773 115.278 288.35 113.404C290.927 111.452 292.528 108.836 293.152 105.557H305.451C302.874 119.144 293.699 125.937 277.926 125.937C271.913 125.937 266.72 124.688 262.348 122.189C257.975 119.612 254.578 116.02 252.157 111.413C249.815 106.728 248.644 101.184 248.644 94.7808ZM277.34 72.9949C267.657 72.9949 262.152 78.4218 260.825 89.2758H293.738C293.348 84.3563 291.63 80.413 288.584 77.4458C285.617 74.4785 281.869 72.9949 277.34 72.9949ZM315.993 94.7808C315.993 88.4559 317.203 82.9508 319.624 78.2657C322.044 73.5805 325.402 69.9495 329.697 67.3727C333.991 64.7959 339.028 63.5074 344.806 63.5074C350.038 63.5074 354.684 64.5226 358.745 66.5528C362.805 68.5049 366.046 71.316 368.466 74.9861C370.965 78.578 372.41 82.8727 372.8 87.8702H360.853C360.697 83.4193 359.174 79.9835 356.285 77.5629C353.396 75.0641 349.569 73.8148 344.806 73.8148C339.418 73.8148 335.241 75.6498 332.273 79.3198C329.384 82.9898 327.94 88.1435 327.94 94.7808C327.94 101.496 329.423 106.728 332.391 110.476C335.358 114.146 339.496 115.981 344.806 115.981C349.491 115.981 353.279 114.849 356.168 112.584C359.057 110.32 360.619 107.118 360.853 102.98H372.8C372.097 110.242 369.208 115.942 364.132 120.081C359.057 124.219 352.615 126.288 344.806 126.288C339.106 126.288 334.069 125 329.697 122.423C325.402 119.768 322.044 116.098 319.624 111.413C317.203 106.65 315.993 101.106 315.993 94.7808ZM474.468 125H462.052L455.376 105.908H423.985L417.426 125H404.893L433.121 46.9923H446.357L474.468 125ZM439.446 60.1107L427.265 96.0692H451.979L439.446 60.1107ZM483.838 46.9923H495.551V125H483.838V46.9923Z" fill="black" style="fill:black;fill-opacity:1;"/>
<rect x="13.5675" y="47.5806" width="67.8378" height="27.1351" rx="4.74865" fill="black" style="fill:black;fill-opacity:1;"/>
<rect y="84.8914" width="67.8378" height="40.7027" rx="4.74865" fill="black" style="fill:black;fill-opacity:1;"/>
</svg>
